# xmcd
#
# Track frame offsets:
#  150
#  25144
#  44209
#  68358
#  88835
#  111210
#  130392
#  149771
#  167973
#  187813
#  205830
#  207634
#  227361
#  246587
#  269676
#  291043
#
# Disc length: 4274 seconds
#
# Revision: 0
# Processed by: cddbd v1.4b42PL1 Copyright (c) Steve Scherf et al.
# Submitted via: AltoMP3_Maker 3.0
#
DISCID=fe10b010
DTITLE=赵传 - 那个傻瓜爱过你
DYEAR=1900
DGENRE=
TTITLE0=我所爱的人让我流泪
TTITLE1=那个傻瓜爱过你
TTITLE2=没有人能像你
TTITLE3=执着
TTITLE4=寂寞入口
TTITLE5=温柔的查甫人
TTITLE6=不该还爱她
TTITLE7=心爱的不要说再见
TTITLE8=年轮
TTITLE9=每一个你
TTITLE10=SWEETEST DEMON
TTITLE11=成全
TTITLE12=勇敢一点
TTITLE13=我的心好乱
TTITLE14=你如何还能这样温柔
TTITLE15=特别的想念你
EXTD=
EXTT0=
EXTT1=
EXTT2=
EXTT3=
EXTT4=
EXTT5=
EXTT6=
EXTT7=
EXTT8=
EXTT9=
EXTT10=
EXTT11=
EXTT12=
EXTT13=
EXTT14=
EXTT15=
PLAYORDER=
